<mxfile host="Electron" modified="2024-04-24T12:48:37.902Z" agent="Mozilla/5.0 (Windows NT 10.0; Win64; x64) AppleWebKit/537.36 (KHTML, like Gecko) draw.io/22.1.2 Chrome/114.0.5735.289 Electron/25.9.4 Safari/537.36" etag="NydXsWup1-JvZhk6qZm6" version="22.1.2" type="device">
  <diagram name="Page-1" id="T9DbqQ0l3a-wbazNzE9M">
    <mxGraphModel dx="330" dy="219" grid="1" gridSize="10" guides="1" tooltips="1" connect="1" arrows="1" fold="1" page="1" pageScale="1" pageWidth="827" pageHeight="1169" math="0" shadow="0">
      <root>
        <mxCell id="0" />
        <mxCell id="1" parent="0" />
        <mxCell id="4AjegcN65vs8UPVnFzmF-49" value="" style="rounded=1;whiteSpace=wrap;html=1;absoluteArcSize=1;arcSize=5;fillColor=none;fontColor=#333333;strokeColor=#666666;dashed=1;dashPattern=1 1;strokeWidth=0.5;" vertex="1" parent="1">
          <mxGeometry x="390" y="470" width="50" height="120" as="geometry" />
        </mxCell>
        <mxCell id="4AjegcN65vs8UPVnFzmF-50" value="" style="rounded=1;whiteSpace=wrap;html=1;absoluteArcSize=1;arcSize=5;fillColor=none;fontColor=#333333;strokeColor=#666666;dashed=1;dashPattern=1 1;strokeWidth=0.5;" vertex="1" parent="1">
          <mxGeometry x="460" y="470" width="50" height="120" as="geometry" />
        </mxCell>
        <mxCell id="o9zueM5k1hmuHPY0Ogje-10" value="&lt;b style=&quot;font-size: 12px;&quot;&gt;rm&lt;/b&gt;" style="edgeStyle=orthogonalEdgeStyle;shape=connector;rounded=0;orthogonalLoop=1;jettySize=auto;html=1;labelBackgroundColor=default;strokeColor=#666666;align=center;verticalAlign=middle;fontFamily=Inconsolata;fontSize=12;fontColor=#4A6182;endArrow=open;endFill=0;horizontal=0;strokeWidth=2;labelBorderColor=#FFFFFF;fillColor=#f5f5f5;" parent="1" source="o9zueM5k1hmuHPY0Ogje-4" target="o9zueM5k1hmuHPY0Ogje-6" edge="1">
          <mxGeometry y="-10" relative="1" as="geometry">
            <mxPoint as="offset" />
          </mxGeometry>
        </mxCell>
        <mxCell id="o9zueM5k1hmuHPY0Ogje-11" value="&lt;b style=&quot;font-size: 12px;&quot;&gt;start&lt;/b&gt;" style="edgeStyle=orthogonalEdgeStyle;shape=connector;rounded=0;orthogonalLoop=1;jettySize=auto;html=1;labelBackgroundColor=default;strokeColor=#82b366;align=center;verticalAlign=middle;fontFamily=Inconsolata;fontSize=12;fontColor=#4A6182;endArrow=open;endFill=0;strokeWidth=2;labelBorderColor=#FFFFFF;fillColor=#d5e8d4;" parent="1" source="o9zueM5k1hmuHPY0Ogje-4" target="o9zueM5k1hmuHPY0Ogje-5" edge="1">
          <mxGeometry y="11" relative="1" as="geometry">
            <mxPoint as="offset" />
          </mxGeometry>
        </mxCell>
        <mxCell id="o9zueM5k1hmuHPY0Ogje-4" value="Created" style="rounded=1;whiteSpace=wrap;html=1;fillColor=#dae8fc;strokeColor=#6c8ebf;fontFamily=Alegreya Sans;fontStyle=1" parent="1" vertex="1">
          <mxGeometry x="310" y="210" width="60" height="30" as="geometry" />
        </mxCell>
        <mxCell id="o9zueM5k1hmuHPY0Ogje-12" value="&lt;b style=&quot;font-size: 12px;&quot;&gt;stop&lt;/b&gt;" style="edgeStyle=orthogonalEdgeStyle;shape=connector;rounded=0;orthogonalLoop=1;jettySize=auto;html=1;labelBackgroundColor=default;strokeColor=#b85450;align=center;verticalAlign=middle;fontFamily=Inconsolata;fontSize=12;fontColor=#4A6182;endArrow=open;endFill=0;strokeWidth=2;horizontal=0;labelBorderColor=#FFFFFF;fillColor=#f8cecc;" parent="1" source="o9zueM5k1hmuHPY0Ogje-5" target="o9zueM5k1hmuHPY0Ogje-7" edge="1">
          <mxGeometry y="-10" relative="1" as="geometry">
            <Array as="points">
              <mxPoint x="440" y="290" />
              <mxPoint x="440" y="290" />
            </Array>
            <mxPoint as="offset" />
          </mxGeometry>
        </mxCell>
        <mxCell id="o9zueM5k1hmuHPY0Ogje-5" value="Running" style="rounded=1;whiteSpace=wrap;html=1;fillColor=#d5e8d4;strokeColor=#82b366;fontFamily=Alegreya Sans;fontStyle=1" parent="1" vertex="1">
          <mxGeometry x="430" y="210" width="60" height="30" as="geometry" />
        </mxCell>
        <mxCell id="o9zueM5k1hmuHPY0Ogje-6" value="Deleted" style="rounded=1;whiteSpace=wrap;html=1;fillColor=#f5f5f5;fontColor=#333333;strokeColor=#666666;fontFamily=Alegreya Sans;fontStyle=1" parent="1" vertex="1">
          <mxGeometry x="310" y="310" width="60" height="30" as="geometry" />
        </mxCell>
        <mxCell id="o9zueM5k1hmuHPY0Ogje-8" value="&lt;font face=&quot;Inconsolata&quot; style=&quot;font-size: 12px;&quot;&gt;rm&lt;/font&gt;" style="edgeStyle=orthogonalEdgeStyle;rounded=0;orthogonalLoop=1;jettySize=auto;html=1;endArrow=open;endFill=0;fontStyle=1;fontColor=#4A6182;fontSize=12;strokeWidth=2;labelBorderColor=#FFFFFF;fillColor=#f5f5f5;strokeColor=#666666;" parent="1" source="o9zueM5k1hmuHPY0Ogje-7" target="o9zueM5k1hmuHPY0Ogje-6" edge="1">
          <mxGeometry y="-10" relative="1" as="geometry">
            <mxPoint as="offset" />
          </mxGeometry>
        </mxCell>
        <mxCell id="o9zueM5k1hmuHPY0Ogje-14" value="&lt;b style=&quot;font-size: 12px;&quot;&gt;start&lt;/b&gt;" style="edgeStyle=orthogonalEdgeStyle;shape=connector;rounded=0;orthogonalLoop=1;jettySize=auto;html=1;labelBackgroundColor=default;strokeColor=#82b366;align=center;verticalAlign=middle;fontFamily=Inconsolata;fontSize=12;fontColor=#4A6182;endArrow=open;endFill=0;strokeWidth=2;horizontal=0;labelBorderColor=#FFFFFF;fillColor=#d5e8d4;" parent="1" source="o9zueM5k1hmuHPY0Ogje-7" target="o9zueM5k1hmuHPY0Ogje-5" edge="1">
          <mxGeometry y="-10" relative="1" as="geometry">
            <Array as="points">
              <mxPoint x="480" y="300" />
              <mxPoint x="480" y="300" />
            </Array>
            <mxPoint as="offset" />
          </mxGeometry>
        </mxCell>
        <mxCell id="o9zueM5k1hmuHPY0Ogje-7" value="Stopped" style="rounded=1;whiteSpace=wrap;html=1;fillColor=#f8cecc;strokeColor=#b85450;fontFamily=Alegreya Sans;fontStyle=1" parent="1" vertex="1">
          <mxGeometry x="430" y="310" width="60" height="30" as="geometry" />
        </mxCell>
        <mxCell id="o9zueM5k1hmuHPY0Ogje-15" value="&lt;b style=&quot;font-size: 12px;&quot;&gt;restart&lt;/b&gt;" style="edgeStyle=orthogonalEdgeStyle;shape=connector;rounded=1;orthogonalLoop=1;jettySize=auto;html=1;labelBackgroundColor=none;strokeColor=#6c8ebf;align=center;verticalAlign=middle;fontFamily=Inconsolata;fontSize=12;fontColor=#4A6182;endArrow=open;endFill=0;arcSize=10;horizontal=0;fillColor=#dae8fc;strokeWidth=2;labelBorderColor=#FFFFFF;" parent="1" edge="1">
          <mxGeometry x="0.5349" y="10" relative="1" as="geometry">
            <mxPoint x="450" y="240" as="sourcePoint" />
            <mxPoint x="470" y="240" as="targetPoint" />
            <Array as="points">
              <mxPoint x="450" y="316" />
              <mxPoint x="470" y="316" />
            </Array>
            <mxPoint as="offset" />
          </mxGeometry>
        </mxCell>
        <mxCell id="o9zueM5k1hmuHPY0Ogje-17" value="&lt;b style=&quot;font-size: 12px;&quot;&gt;create&lt;/b&gt;" style="shape=connector;rounded=0;orthogonalLoop=1;jettySize=auto;html=1;labelBackgroundColor=default;strokeColor=default;align=center;verticalAlign=middle;fontFamily=Inconsolata;fontSize=12;fontColor=#4A6182;endArrow=open;endFill=0;horizontal=0;strokeWidth=2;labelBorderColor=#FFFFFF;" parent="1" edge="1">
          <mxGeometry x="0.0009" y="-10" relative="1" as="geometry">
            <mxPoint x="340" y="150" as="sourcePoint" />
            <mxPoint x="339.83" y="210" as="targetPoint" />
            <mxPoint as="offset" />
          </mxGeometry>
        </mxCell>
        <mxCell id="o9zueM5k1hmuHPY0Ogje-18" value="&lt;b style=&quot;font-size: 12px;&quot;&gt;run&lt;/b&gt;" style="shape=connector;rounded=0;orthogonalLoop=1;jettySize=auto;html=1;labelBackgroundColor=default;strokeColor=default;align=center;verticalAlign=middle;fontFamily=Inconsolata;fontSize=12;fontColor=#4A6182;endArrow=open;endFill=0;horizontal=0;strokeWidth=2;labelBorderColor=#FFFFFF;" parent="1" edge="1">
          <mxGeometry x="-0.001" y="10" relative="1" as="geometry">
            <mxPoint x="460" y="150" as="sourcePoint" />
            <mxPoint x="459.83" y="210" as="targetPoint" />
            <mxPoint as="offset" />
          </mxGeometry>
        </mxCell>
        <mxCell id="o9zueM5k1hmuHPY0Ogje-19" value="Docker Kommando&lt;br&gt;&lt;font color=&quot;#4a6182&quot; style=&quot;&quot; face=&quot;Inconsolata&quot;&gt;docker...&lt;/font&gt;" style="rounded=1;whiteSpace=wrap;html=1;fontStyle=1;fontFamily=Alegreya Sans;" parent="1" vertex="1">
          <mxGeometry x="310" y="120" width="180" height="30" as="geometry" />
        </mxCell>
        <mxCell id="-vL8mmux3KOwtyKGyGx7-1" value="Docker Engine&lt;span style=&quot;font-weight: normal;&quot;&gt; / Daemon&lt;/span&gt;" style="rounded=1;whiteSpace=wrap;html=1;fontStyle=1;fontFamily=Alegreya Sans;absoluteArcSize=1;arcSize=10;fillColor=#dae8fc;strokeColor=#6c8ebf;" parent="1" vertex="1">
          <mxGeometry x="590" y="205" width="210" height="20" as="geometry" />
        </mxCell>
        <mxCell id="-vL8mmux3KOwtyKGyGx7-4" value="Betriebsystem" style="rounded=1;whiteSpace=wrap;html=1;fontStyle=1;fontFamily=Alegreya Sans;absoluteArcSize=1;arcSize=10;" parent="1" vertex="1">
          <mxGeometry x="590" y="230" width="210" height="20" as="geometry" />
        </mxCell>
        <mxCell id="-vL8mmux3KOwtyKGyGx7-7" value="Container" style="rounded=1;whiteSpace=wrap;html=1;fontStyle=1;fontFamily=Alegreya Sans;absoluteArcSize=1;arcSize=10;fillColor=none;fontColor=#333333;strokeColor=#666666;dashed=1;align=left;verticalAlign=top;spacingBottom=0;spacingTop=-20;fontSize=10;" parent="1" vertex="1">
          <mxGeometry x="715" y="145" width="85" height="55" as="geometry" />
        </mxCell>
        <mxCell id="-vL8mmux3KOwtyKGyGx7-8" value="APP" style="rounded=1;whiteSpace=wrap;html=1;fontStyle=1;fontFamily=Alegreya Sans;absoluteArcSize=1;arcSize=5;fillColor=#f5f5f5;strokeColor=#666666;fontColor=#333333;" parent="1" vertex="1">
          <mxGeometry x="720" y="150" width="75" height="20" as="geometry" />
        </mxCell>
        <mxCell id="-vL8mmux3KOwtyKGyGx7-9" value="LIBs/BINs" style="rounded=1;whiteSpace=wrap;html=1;fontStyle=1;fontFamily=Alegreya Sans;absoluteArcSize=1;arcSize=5;fillColor=#f5f5f5;strokeColor=#666666;fontColor=#333333;" parent="1" vertex="1">
          <mxGeometry x="720" y="175" width="75" height="20" as="geometry" />
        </mxCell>
        <mxCell id="-vL8mmux3KOwtyKGyGx7-18" value="Container" style="rounded=1;whiteSpace=wrap;html=1;fontStyle=1;fontFamily=Alegreya Sans;absoluteArcSize=1;arcSize=10;fillColor=none;fontColor=#333333;strokeColor=#666666;dashed=1;align=left;verticalAlign=top;spacingBottom=0;spacingTop=-20;fontSize=10;" parent="1" vertex="1">
          <mxGeometry x="590" y="145" width="85" height="55" as="geometry" />
        </mxCell>
        <mxCell id="-vL8mmux3KOwtyKGyGx7-19" value="APP" style="rounded=1;whiteSpace=wrap;html=1;fontStyle=1;fontFamily=Alegreya Sans;absoluteArcSize=1;arcSize=5;fillColor=#f5f5f5;strokeColor=#666666;fontColor=#333333;" parent="1" vertex="1">
          <mxGeometry x="595" y="150" width="75" height="20" as="geometry" />
        </mxCell>
        <mxCell id="-vL8mmux3KOwtyKGyGx7-20" value="LIBs/BINs" style="rounded=1;whiteSpace=wrap;html=1;fontStyle=1;fontFamily=Alegreya Sans;absoluteArcSize=1;arcSize=5;fillColor=#f5f5f5;strokeColor=#666666;fontColor=#333333;" parent="1" vertex="1">
          <mxGeometry x="595" y="175" width="75" height="20" as="geometry" />
        </mxCell>
        <mxCell id="-vL8mmux3KOwtyKGyGx7-21" value="" style="endArrow=open;html=1;endFill=0;curved=1;" parent="1" edge="1">
          <mxGeometry width="50" height="50" relative="1" as="geometry">
            <mxPoint x="680" y="160" as="sourcePoint" />
            <mxPoint x="710" y="160" as="targetPoint" />
            <Array as="points">
              <mxPoint x="695" y="150" />
            </Array>
          </mxGeometry>
        </mxCell>
        <mxCell id="-vL8mmux3KOwtyKGyGx7-22" value="" style="endArrow=open;html=1;endFill=0;curved=1;" parent="1" edge="1">
          <mxGeometry width="50" height="50" relative="1" as="geometry">
            <mxPoint x="710" y="185" as="sourcePoint" />
            <mxPoint x="680" y="185" as="targetPoint" />
            <Array as="points">
              <mxPoint x="695" y="195" />
            </Array>
          </mxGeometry>
        </mxCell>
        <mxCell id="-vL8mmux3KOwtyKGyGx7-24" value="" style="shape=cross;whiteSpace=wrap;html=1;fillColor=#B85450;strokeColor=#B85450;rotation=-45;" parent="1" vertex="1">
          <mxGeometry x="690" y="150" width="10" height="10" as="geometry" />
        </mxCell>
        <mxCell id="-vL8mmux3KOwtyKGyGx7-25" value="" style="shape=cross;whiteSpace=wrap;html=1;fillColor=#B85450;strokeColor=#B85450;rotation=-45;" parent="1" vertex="1">
          <mxGeometry x="690" y="185" width="10" height="10" as="geometry" />
        </mxCell>
        <mxCell id="-vL8mmux3KOwtyKGyGx7-26" value="" style="html=1;whiteSpace=wrap;shape=isoCube2;backgroundOutline=1;isoAngle=15;fillColor=#ffe6cc;strokeColor=#d79b00;" parent="1" vertex="1">
          <mxGeometry x="560" y="408" width="30" height="32" as="geometry" />
        </mxCell>
        <mxCell id="-vL8mmux3KOwtyKGyGx7-31" value="" style="endArrow=open;html=1;endFill=0;curved=1;fillColor=#d5e8d4;strokeColor=#82b366;strokeWidth=1.5;" parent="1" edge="1">
          <mxGeometry width="50" height="50" relative="1" as="geometry">
            <mxPoint x="560" y="380" as="sourcePoint" />
            <mxPoint x="565" y="405" as="targetPoint" />
            <Array as="points">
              <mxPoint x="560" y="390" />
            </Array>
          </mxGeometry>
        </mxCell>
        <mxCell id="-vL8mmux3KOwtyKGyGx7-32" value="" style="endArrow=open;html=1;endFill=0;curved=1;fillColor=#d5e8d4;strokeColor=#82b366;strokeWidth=1.5;" parent="1" edge="1">
          <mxGeometry width="50" height="50" relative="1" as="geometry">
            <mxPoint x="575" y="380" as="sourcePoint" />
            <mxPoint x="575" y="405" as="targetPoint" />
            <Array as="points" />
          </mxGeometry>
        </mxCell>
        <mxCell id="-vL8mmux3KOwtyKGyGx7-33" value="" style="endArrow=open;html=1;endFill=0;curved=1;fillColor=#d5e8d4;strokeColor=#82b366;strokeWidth=1.5;" parent="1" edge="1">
          <mxGeometry width="50" height="50" relative="1" as="geometry">
            <mxPoint x="590" y="380" as="sourcePoint" />
            <mxPoint x="585" y="405" as="targetPoint" />
            <Array as="points">
              <mxPoint x="590" y="390" />
            </Array>
          </mxGeometry>
        </mxCell>
        <mxCell id="-vL8mmux3KOwtyKGyGx7-35" value="Anwendung" style="rounded=1;whiteSpace=wrap;html=1;fontStyle=1;fontFamily=Alegreya Sans;absoluteArcSize=1;arcSize=5;direction=south;horizontal=0;fontSize=8;fillColor=default;fontColor=#333333;strokeColor=#666666;" parent="1" vertex="1">
          <mxGeometry x="554" y="330" width="12" height="45" as="geometry" />
        </mxCell>
        <mxCell id="-vL8mmux3KOwtyKGyGx7-36" value="Konfiguration" style="rounded=1;whiteSpace=wrap;html=1;fontStyle=1;fontFamily=Alegreya Sans;absoluteArcSize=1;arcSize=5;direction=south;horizontal=0;fontSize=8;fillColor=default;fontColor=#333333;strokeColor=#666666;" parent="1" vertex="1">
          <mxGeometry x="569" y="320" width="12" height="55" as="geometry" />
        </mxCell>
        <mxCell id="-vL8mmux3KOwtyKGyGx7-37" value="Runtime &amp;amp; Libs" style="rounded=1;whiteSpace=wrap;html=1;fontStyle=1;fontFamily=Alegreya Sans;absoluteArcSize=1;arcSize=5;direction=south;horizontal=0;fontSize=8;fillColor=default;fontColor=#333333;strokeColor=#666666;verticalAlign=middle;" parent="1" vertex="1">
          <mxGeometry x="584" y="320" width="12" height="55" as="geometry" />
        </mxCell>
        <mxCell id="-vL8mmux3KOwtyKGyGx7-34" value="" style="endArrow=open;html=1;endFill=0;curved=1;fillColor=#dae8fc;strokeColor=#6c8ebf;strokeWidth=1;fontFamily=Inconsolata;fontStyle=0;labelBackgroundColor=none;" parent="1" edge="1">
          <mxGeometry x="0.0885" y="8" width="50" height="50" relative="1" as="geometry">
            <mxPoint x="600" y="410" as="sourcePoint" />
            <mxPoint x="640" y="380" as="targetPoint" />
            <Array as="points">
              <mxPoint x="620" y="380" />
            </Array>
            <mxPoint as="offset" />
          </mxGeometry>
        </mxCell>
        <mxCell id="4AjegcN65vs8UPVnFzmF-2" value="" style="html=1;whiteSpace=wrap;shape=isoCube2;backgroundOutline=1;isoAngle=15;fillColor=#f8cecc;strokeColor=#b85450;" vertex="1" parent="1">
          <mxGeometry x="645" y="437" width="30" height="32" as="geometry" />
        </mxCell>
        <mxCell id="4AjegcN65vs8UPVnFzmF-8" value="" style="html=1;whiteSpace=wrap;shape=isoCube2;backgroundOutline=1;isoAngle=15;fillColor=#dae8fc;strokeColor=#6c8ebf;" vertex="1" parent="1">
          <mxGeometry x="733" y="436" width="20" height="22" as="geometry" />
        </mxCell>
        <mxCell id="4AjegcN65vs8UPVnFzmF-9" value="" style="html=1;whiteSpace=wrap;shape=isoCube2;backgroundOutline=1;isoAngle=15;fillColor=#f8cecc;strokeColor=#b85450;" vertex="1" parent="1">
          <mxGeometry x="721" y="442" width="20" height="22" as="geometry" />
        </mxCell>
        <mxCell id="4AjegcN65vs8UPVnFzmF-10" value="" style="html=1;whiteSpace=wrap;shape=isoCube2;backgroundOutline=1;isoAngle=15;fillColor=#fff2cc;strokeColor=#d6b656;" vertex="1" parent="1">
          <mxGeometry x="745.5" y="442" width="20" height="22" as="geometry" />
        </mxCell>
        <mxCell id="4AjegcN65vs8UPVnFzmF-11" value="" style="endArrow=open;html=1;endFill=0;curved=1;fillColor=#dae8fc;strokeColor=#6c8ebf;strokeWidth=1;" edge="1" parent="1">
          <mxGeometry width="50" height="50" relative="1" as="geometry">
            <mxPoint x="660" y="430" as="sourcePoint" />
            <mxPoint x="660" y="395" as="targetPoint" />
            <Array as="points" />
          </mxGeometry>
        </mxCell>
        <mxCell id="4AjegcN65vs8UPVnFzmF-12" value="" style="image;sketch=0;aspect=fixed;html=1;points=[];align=center;fontSize=12;image=img/lib/mscae/Docker.svg;" vertex="1" parent="1">
          <mxGeometry x="645" y="350" width="36.59" height="30" as="geometry" />
        </mxCell>
        <mxCell id="4AjegcN65vs8UPVnFzmF-16" value="push" style="text;html=1;strokeColor=none;fillColor=none;align=center;verticalAlign=middle;whiteSpace=wrap;rounded=0;rotation=-30;fontFamily=Inconsolata;" vertex="1" parent="1">
          <mxGeometry x="597" y="378" width="30" height="10" as="geometry" />
        </mxCell>
        <mxCell id="4AjegcN65vs8UPVnFzmF-17" value="" style="html=1;dashed=0;aspect=fixed;verticalLabelPosition=bottom;verticalAlign=top;align=center;shape=mxgraph.gmdl.edit;shadow=0;sketch=0;" vertex="1" parent="1">
          <mxGeometry x="667.3" y="442" width="16" height="16" as="geometry" />
        </mxCell>
        <mxCell id="4AjegcN65vs8UPVnFzmF-18" value="commit" style="text;html=1;strokeColor=none;fillColor=none;align=center;verticalAlign=middle;whiteSpace=wrap;rounded=0;rotation=-30;fontFamily=Inconsolata;" vertex="1" parent="1">
          <mxGeometry x="620.47" y="409.75" width="37" height="10" as="geometry" />
        </mxCell>
        <mxCell id="4AjegcN65vs8UPVnFzmF-19" value="" style="html=1;whiteSpace=wrap;shape=isoCube2;backgroundOutline=1;isoAngle=15;fillColor=#ffe6cc;strokeColor=#d79b00;" vertex="1" parent="1">
          <mxGeometry x="733" y="367" width="30" height="32" as="geometry" />
        </mxCell>
        <mxCell id="4AjegcN65vs8UPVnFzmF-20" value="" style="endArrow=open;html=1;endFill=0;curved=1;fillColor=#dae8fc;strokeColor=#6c8ebf;strokeWidth=1;fontFamily=Inconsolata;fontStyle=0;labelBackgroundColor=none;" edge="1" parent="1">
          <mxGeometry x="0.0885" y="8" width="50" height="50" relative="1" as="geometry">
            <mxPoint x="690" y="380" as="sourcePoint" />
            <mxPoint x="730" y="380" as="targetPoint" />
            <Array as="points" />
            <mxPoint as="offset" />
          </mxGeometry>
        </mxCell>
        <mxCell id="4AjegcN65vs8UPVnFzmF-21" value="pull" style="text;html=1;strokeColor=none;fillColor=none;align=center;verticalAlign=middle;whiteSpace=wrap;rounded=0;rotation=0;fontFamily=Inconsolata;" vertex="1" parent="1">
          <mxGeometry x="691" y="367" width="30" height="10" as="geometry" />
        </mxCell>
        <mxCell id="4AjegcN65vs8UPVnFzmF-22" value="hub" style="text;html=1;strokeColor=none;fillColor=none;align=center;verticalAlign=middle;whiteSpace=wrap;rounded=0;rotation=0;fontFamily=Inconsolata;fontStyle=1" vertex="1" parent="1">
          <mxGeometry x="648.3" y="380" width="30" height="10" as="geometry" />
        </mxCell>
        <mxCell id="4AjegcN65vs8UPVnFzmF-25" value="" style="image;html=1;image=img/lib/clip_art/computers/Laptop_128x128.png" vertex="1" parent="1">
          <mxGeometry x="753" y="350" width="27" height="25" as="geometry" />
        </mxCell>
        <mxCell id="4AjegcN65vs8UPVnFzmF-26" value="" style="endArrow=open;html=1;endFill=0;curved=1;fillColor=#dae8fc;strokeColor=#6c8ebf;strokeWidth=1;fontFamily=Inconsolata;fontStyle=0;labelBackgroundColor=none;" edge="1" parent="1">
          <mxGeometry x="0.0885" y="8" width="50" height="50" relative="1" as="geometry">
            <mxPoint x="750" y="400" as="sourcePoint" />
            <mxPoint x="750" y="430" as="targetPoint" />
            <Array as="points">
              <mxPoint x="759" y="415" />
            </Array>
            <mxPoint as="offset" />
          </mxGeometry>
        </mxCell>
        <mxCell id="4AjegcN65vs8UPVnFzmF-27" value="run" style="text;html=1;strokeColor=none;fillColor=none;align=center;verticalAlign=middle;whiteSpace=wrap;rounded=0;rotation=0;fontFamily=Inconsolata;" vertex="1" parent="1">
          <mxGeometry x="760" y="409.75" width="30" height="10" as="geometry" />
        </mxCell>
        <mxCell id="4AjegcN65vs8UPVnFzmF-28" value="" style="html=1;whiteSpace=wrap;shape=isoCube2;backgroundOutline=1;isoAngle=15;fillColor=#ffe6cc;strokeColor=#d79b00;" vertex="1" parent="1">
          <mxGeometry x="400" y="480" width="30" height="32" as="geometry" />
        </mxCell>
        <mxCell id="4AjegcN65vs8UPVnFzmF-30" value="" style="strokeWidth=1;html=1;shape=mxgraph.flowchart.database;whiteSpace=wrap;fillColor=#dae8fc;strokeColor=#6c8ebf;" vertex="1" parent="1">
          <mxGeometry x="405" y="550" width="20" height="30" as="geometry" />
        </mxCell>
        <mxCell id="4AjegcN65vs8UPVnFzmF-31" value="" style="strokeWidth=1;html=1;shape=mxgraph.flowchart.database;whiteSpace=wrap;fillColor=#e1d5e7;strokeColor=#9673a6;" vertex="1" parent="1">
          <mxGeometry x="474.5" y="550" width="21" height="30" as="geometry" />
        </mxCell>
        <mxCell id="4AjegcN65vs8UPVnFzmF-32" value="" style="html=1;whiteSpace=wrap;shape=isoCube2;backgroundOutline=1;isoAngle=15;fillColor=#ffe6cc;strokeColor=#d79b00;" vertex="1" parent="1">
          <mxGeometry x="470" y="480" width="30" height="32" as="geometry" />
        </mxCell>
        <mxCell id="4AjegcN65vs8UPVnFzmF-34" value="" style="endArrow=open;html=1;endFill=0;curved=1;fillColor=#f8cecc;strokeColor=#B85450;strokeWidth=1;" edge="1" parent="1">
          <mxGeometry width="50" height="50" relative="1" as="geometry">
            <mxPoint x="430" y="510" as="sourcePoint" />
            <mxPoint x="470" y="550" as="targetPoint" />
            <Array as="points" />
          </mxGeometry>
        </mxCell>
        <mxCell id="4AjegcN65vs8UPVnFzmF-37" value="" style="endArrow=open;html=1;endFill=0;curved=1;fillColor=#d5e8d4;strokeColor=#82b366;strokeWidth=1;" edge="1" parent="1">
          <mxGeometry width="50" height="50" relative="1" as="geometry">
            <mxPoint x="415" y="516" as="sourcePoint" />
            <mxPoint x="415" y="546" as="targetPoint" />
            <Array as="points" />
          </mxGeometry>
        </mxCell>
        <mxCell id="4AjegcN65vs8UPVnFzmF-38" value="" style="endArrow=open;html=1;endFill=0;curved=1;fillColor=#d5e8d4;strokeColor=#82B366;strokeWidth=1;" edge="1" parent="1">
          <mxGeometry width="50" height="50" relative="1" as="geometry">
            <mxPoint x="485" y="516" as="sourcePoint" />
            <mxPoint x="485" y="546" as="targetPoint" />
            <Array as="points" />
          </mxGeometry>
        </mxCell>
        <mxCell id="4AjegcN65vs8UPVnFzmF-43" value="&lt;div class=&quot;preview&quot; style=&quot;font-size: 16px;&quot;&gt;&lt;b style=&quot;font-size: 16px;&quot;&gt;✓&lt;/b&gt;&lt;/div&gt;" style="text;html=1;strokeColor=none;fillColor=none;align=center;verticalAlign=middle;whiteSpace=wrap;rounded=0;fontFamily=Inter;labelBorderColor=none;fontColor=#82B366;fontSize=16;" vertex="1" parent="1">
          <mxGeometry x="485" y="516" width="15" height="20" as="geometry" />
        </mxCell>
        <mxCell id="4AjegcN65vs8UPVnFzmF-47" value="&lt;div class=&quot;preview&quot; style=&quot;font-size: 16px;&quot;&gt;✗&lt;br&gt;&lt;/div&gt;" style="text;html=1;strokeColor=none;fillColor=none;align=center;verticalAlign=middle;whiteSpace=wrap;rounded=0;fontFamily=Inter;labelBorderColor=none;fontColor=#B85450;fontSize=16;fontStyle=1" vertex="1" parent="1">
          <mxGeometry x="445" y="510" width="15" height="20" as="geometry" />
        </mxCell>
        <mxCell id="4AjegcN65vs8UPVnFzmF-48" value="&lt;div class=&quot;preview&quot; style=&quot;font-size: 16px;&quot;&gt;&lt;b style=&quot;font-size: 16px;&quot;&gt;✓&lt;/b&gt;&lt;/div&gt;" style="text;html=1;strokeColor=none;fillColor=none;align=center;verticalAlign=middle;whiteSpace=wrap;rounded=0;fontFamily=Inter;labelBorderColor=none;fontColor=#82B366;fontSize=16;" vertex="1" parent="1">
          <mxGeometry x="415" y="516" width="15" height="20" as="geometry" />
        </mxCell>
        <mxCell id="4AjegcN65vs8UPVnFzmF-51" value="" style="rounded=1;whiteSpace=wrap;html=1;absoluteArcSize=1;arcSize=5;fillColor=none;fontColor=#333333;strokeColor=#666666;dashed=1;dashPattern=1 1;strokeWidth=0.5;" vertex="1" parent="1">
          <mxGeometry x="530" y="470" width="50" height="50" as="geometry" />
        </mxCell>
        <mxCell id="4AjegcN65vs8UPVnFzmF-52" value="" style="rounded=1;whiteSpace=wrap;html=1;absoluteArcSize=1;arcSize=5;fillColor=none;fontColor=#333333;strokeColor=#666666;dashed=1;dashPattern=1 1;strokeWidth=0.5;" vertex="1" parent="1">
          <mxGeometry x="600" y="470" width="50" height="50" as="geometry" />
        </mxCell>
        <mxCell id="4AjegcN65vs8UPVnFzmF-53" value="" style="html=1;whiteSpace=wrap;shape=isoCube2;backgroundOutline=1;isoAngle=15;fillColor=#ffe6cc;strokeColor=#d79b00;" vertex="1" parent="1">
          <mxGeometry x="540" y="480" width="30" height="32" as="geometry" />
        </mxCell>
        <mxCell id="4AjegcN65vs8UPVnFzmF-54" value="" style="strokeWidth=1;html=1;shape=mxgraph.flowchart.database;whiteSpace=wrap;fillColor=#dae8fc;strokeColor=#6c8ebf;" vertex="1" parent="1">
          <mxGeometry x="580" y="550" width="20" height="30" as="geometry" />
        </mxCell>
        <mxCell id="4AjegcN65vs8UPVnFzmF-56" value="" style="html=1;whiteSpace=wrap;shape=isoCube2;backgroundOutline=1;isoAngle=15;fillColor=#ffe6cc;strokeColor=#d79b00;" vertex="1" parent="1">
          <mxGeometry x="610" y="480" width="30" height="32" as="geometry" />
        </mxCell>
        <mxCell id="4AjegcN65vs8UPVnFzmF-57" value="" style="endArrow=open;html=1;endFill=0;curved=1;fillColor=#f8cecc;strokeColor=#B85450;strokeWidth=1.5;startArrow=open;startFill=0;endSize=4;startSize=4;" edge="1" parent="1">
          <mxGeometry width="50" height="50" relative="1" as="geometry">
            <mxPoint x="575" y="500" as="sourcePoint" />
            <mxPoint x="605" y="500" as="targetPoint" />
            <Array as="points" />
          </mxGeometry>
        </mxCell>
        <mxCell id="4AjegcN65vs8UPVnFzmF-58" value="" style="endArrow=open;html=1;endFill=0;curved=1;fillColor=#d5e8d4;strokeColor=#82b366;strokeWidth=1;" edge="1" parent="1">
          <mxGeometry width="50" height="50" relative="1" as="geometry">
            <mxPoint x="555" y="516" as="sourcePoint" />
            <mxPoint x="580" y="546" as="targetPoint" />
            <Array as="points" />
          </mxGeometry>
        </mxCell>
        <mxCell id="4AjegcN65vs8UPVnFzmF-59" value="" style="endArrow=open;html=1;endFill=0;curved=1;fillColor=#d5e8d4;strokeColor=#82B366;strokeWidth=1;" edge="1" parent="1">
          <mxGeometry width="50" height="50" relative="1" as="geometry">
            <mxPoint x="625" y="516" as="sourcePoint" />
            <mxPoint x="600" y="546" as="targetPoint" />
            <Array as="points" />
          </mxGeometry>
        </mxCell>
        <mxCell id="4AjegcN65vs8UPVnFzmF-60" value="&lt;div class=&quot;preview&quot; style=&quot;font-size: 16px;&quot;&gt;&lt;b style=&quot;font-size: 16px;&quot;&gt;✓&lt;/b&gt;&lt;/div&gt;" style="text;html=1;strokeColor=none;fillColor=none;align=center;verticalAlign=middle;whiteSpace=wrap;rounded=0;fontFamily=Inter;labelBorderColor=none;fontColor=#82B366;fontSize=16;" vertex="1" parent="1">
          <mxGeometry x="614" y="522" width="15" height="20" as="geometry" />
        </mxCell>
        <mxCell id="4AjegcN65vs8UPVnFzmF-61" value="&lt;div class=&quot;preview&quot; style=&quot;font-size: 16px;&quot;&gt;✗&lt;br&gt;&lt;/div&gt;" style="text;html=1;strokeColor=none;fillColor=none;align=center;verticalAlign=middle;whiteSpace=wrap;rounded=0;fontFamily=Inter;labelBorderColor=none;fontColor=#B85450;fontSize=16;fontStyle=1" vertex="1" parent="1">
          <mxGeometry x="580" y="480" width="20" height="15" as="geometry" />
        </mxCell>
        <mxCell id="4AjegcN65vs8UPVnFzmF-62" value="&lt;div class=&quot;preview&quot; style=&quot;font-size: 16px;&quot;&gt;&lt;b style=&quot;font-size: 16px;&quot;&gt;✓&lt;/b&gt;&lt;/div&gt;" style="text;html=1;strokeColor=none;fillColor=none;align=center;verticalAlign=middle;whiteSpace=wrap;rounded=0;fontFamily=Inter;labelBorderColor=none;fontColor=#82B366;fontSize=16;" vertex="1" parent="1">
          <mxGeometry x="554" y="530" width="15" height="20" as="geometry" />
        </mxCell>
        <mxCell id="4AjegcN65vs8UPVnFzmF-63" value="" style="rounded=1;whiteSpace=wrap;html=1;absoluteArcSize=1;arcSize=5;fillColor=none;fontColor=#333333;strokeColor=#666666;dashed=1;dashPattern=1 1;strokeWidth=0.5;" vertex="1" parent="1">
          <mxGeometry x="390" y="600" width="50" height="120" as="geometry" />
        </mxCell>
        <mxCell id="4AjegcN65vs8UPVnFzmF-64" value="" style="rounded=1;whiteSpace=wrap;html=1;absoluteArcSize=1;arcSize=5;fillColor=none;fontColor=#333333;strokeColor=#666666;dashed=1;dashPattern=1 1;strokeWidth=0.5;" vertex="1" parent="1">
          <mxGeometry x="510" y="600" width="50" height="120" as="geometry" />
        </mxCell>
        <mxCell id="4AjegcN65vs8UPVnFzmF-65" value="" style="html=1;whiteSpace=wrap;shape=isoCube2;backgroundOutline=1;isoAngle=15;fillColor=#ffe6cc;strokeColor=#d79b00;" vertex="1" parent="1">
          <mxGeometry x="400" y="610" width="30" height="32" as="geometry" />
        </mxCell>
        <mxCell id="4AjegcN65vs8UPVnFzmF-66" value="" style="strokeWidth=1;html=1;shape=mxgraph.flowchart.database;whiteSpace=wrap;fillColor=#dae8fc;strokeColor=#6c8ebf;" vertex="1" parent="1">
          <mxGeometry x="405" y="680" width="20" height="30" as="geometry" />
        </mxCell>
        <mxCell id="4AjegcN65vs8UPVnFzmF-67" value="" style="strokeWidth=1;html=1;shape=mxgraph.flowchart.database;whiteSpace=wrap;fillColor=#e1d5e7;strokeColor=#9673a6;" vertex="1" parent="1">
          <mxGeometry x="524.5" y="680" width="21" height="30" as="geometry" />
        </mxCell>
        <mxCell id="4AjegcN65vs8UPVnFzmF-68" value="" style="html=1;whiteSpace=wrap;shape=isoCube2;backgroundOutline=1;isoAngle=15;fillColor=#ffe6cc;strokeColor=#d79b00;" vertex="1" parent="1">
          <mxGeometry x="520" y="610" width="30" height="32" as="geometry" />
        </mxCell>
        <mxCell id="4AjegcN65vs8UPVnFzmF-69" value="" style="endArrow=open;html=1;endFill=0;curved=1;fillColor=#f8cecc;strokeColor=#B85450;strokeWidth=1;startArrow=open;startFill=0;" edge="1" parent="1">
          <mxGeometry width="50" height="50" relative="1" as="geometry">
            <mxPoint x="437" y="625" as="sourcePoint" />
            <mxPoint x="513" y="625" as="targetPoint" />
            <Array as="points" />
          </mxGeometry>
        </mxCell>
        <mxCell id="4AjegcN65vs8UPVnFzmF-70" value="" style="endArrow=open;html=1;endFill=0;curved=1;strokeWidth=1;fillColor=#f5f5f5;strokeColor=#9C9C9C;" edge="1" parent="1">
          <mxGeometry width="50" height="50" relative="1" as="geometry">
            <mxPoint x="415" y="646" as="sourcePoint" />
            <mxPoint x="415" y="676" as="targetPoint" />
            <Array as="points" />
          </mxGeometry>
        </mxCell>
        <mxCell id="4AjegcN65vs8UPVnFzmF-71" value="" style="endArrow=open;html=1;endFill=0;curved=1;strokeWidth=1;fillColor=#f5f5f5;strokeColor=#9C9C9C;" edge="1" parent="1">
          <mxGeometry width="50" height="50" relative="1" as="geometry">
            <mxPoint x="535" y="646" as="sourcePoint" />
            <mxPoint x="535" y="676" as="targetPoint" />
            <Array as="points" />
          </mxGeometry>
        </mxCell>
        <mxCell id="4AjegcN65vs8UPVnFzmF-73" value="&lt;div class=&quot;preview&quot; style=&quot;font-size: 16px;&quot;&gt;✗&lt;br&gt;&lt;/div&gt;" style="text;html=1;strokeColor=none;fillColor=none;align=center;verticalAlign=middle;whiteSpace=wrap;rounded=0;fontFamily=Inter;labelBorderColor=none;fontColor=#B85450;fontSize=16;fontStyle=1" vertex="1" parent="1">
          <mxGeometry x="460" y="610" width="30" height="15" as="geometry" />
        </mxCell>
        <mxCell id="4AjegcN65vs8UPVnFzmF-75" value="" style="strokeWidth=1;html=1;shape=mxgraph.flowchart.database;whiteSpace=wrap;fillColor=#fff2cc;strokeColor=#d6b656;" vertex="1" parent="1">
          <mxGeometry x="460" y="680" width="30" height="30" as="geometry" />
        </mxCell>
        <mxCell id="4AjegcN65vs8UPVnFzmF-76" value="" style="endArrow=open;html=1;endFill=0;curved=1;fillColor=#d5e8d4;strokeColor=#82B366;strokeWidth=1;" edge="1" parent="1">
          <mxGeometry width="50" height="50" relative="1" as="geometry">
            <mxPoint x="520" y="640" as="sourcePoint" />
            <mxPoint x="490" y="680" as="targetPoint" />
            <Array as="points" />
          </mxGeometry>
        </mxCell>
        <mxCell id="4AjegcN65vs8UPVnFzmF-77" value="&lt;div class=&quot;preview&quot; style=&quot;font-size: 16px;&quot;&gt;&lt;b style=&quot;font-size: 16px;&quot;&gt;✓&lt;/b&gt;&lt;/div&gt;" style="text;html=1;strokeColor=none;fillColor=none;align=center;verticalAlign=middle;whiteSpace=wrap;rounded=0;fontFamily=Inter;labelBorderColor=none;fontColor=#82B366;fontSize=16;" vertex="1" parent="1">
          <mxGeometry x="490" y="646" width="15" height="20" as="geometry" />
        </mxCell>
        <mxCell id="4AjegcN65vs8UPVnFzmF-78" value="" style="endArrow=open;html=1;endFill=0;curved=1;fillColor=#d5e8d4;strokeColor=#82B366;strokeWidth=1;" edge="1" parent="1">
          <mxGeometry width="50" height="50" relative="1" as="geometry">
            <mxPoint x="430" y="640" as="sourcePoint" />
            <mxPoint x="460" y="680" as="targetPoint" />
            <Array as="points" />
          </mxGeometry>
        </mxCell>
        <mxCell id="4AjegcN65vs8UPVnFzmF-79" value="&lt;div class=&quot;preview&quot; style=&quot;font-size: 16px;&quot;&gt;&lt;b style=&quot;font-size: 16px;&quot;&gt;✓&lt;/b&gt;&lt;/div&gt;" style="text;html=1;strokeColor=none;fillColor=none;align=center;verticalAlign=middle;whiteSpace=wrap;rounded=0;fontFamily=Inter;labelBorderColor=none;fontColor=#82B366;fontSize=16;" vertex="1" parent="1">
          <mxGeometry x="445" y="646" width="15" height="20" as="geometry" />
        </mxCell>
      </root>
    </mxGraphModel>
  </diagram>
</mxfile>
